HIERARCHY
ROOT hip
{
	OFFSET 0.000000 0.000000 0.000000 
	CHANNELS 6 Xposition Yposition Zposition Xrotation Zrotation Yrotation
	JOINT abdomen
	{
		OFFSET 0.000000 3.402643 0.000000 
		CHANNELS 3 Xrotation Zrotation Yrotation
		JOINT chest
		{
			OFFSET 0.000000 8.438565 -0.680529 
			CHANNELS 3 Xrotation Zrotation Yrotation
			JOINT neck
			{
				OFFSET 0.000000 10.207942 -0.272212 
				CHANNELS 3 Xrotation Zrotation Yrotation
				JOINT head
				{
					OFFSET 0.000000 3.130431 0.000000 
					CHANNELS 3 Xrotation Zrotation Yrotation
					End Site
					{
						OFFSET 0.000000 3.130435 0.000000 
					}
				}
			}
			JOINT lCollar
			{
				OFFSET 3.470700 6.669187 -0.816635 
				CHANNELS 3 Yrotation Zrotation Xrotation
				JOINT lShldr
				{
					OFFSET 3.198488 0.000000 0.000000 
					CHANNELS 3 Zrotation Yrotation Xrotation
					JOINT lForeArm
					{
						OFFSET 10.139888 0.000000 0.000000 
						CHANNELS 3 Yrotation Zrotation Xrotation
						JOINT lHand
						{
							OFFSET 8.370511 0.000000 0.000000 
							CHANNELS 3 Zrotation Yrotation Xrotation
							End Site
							{
								OFFSET 4.083176 0.000000 0.000000 
							}
						}
					}
				}
			}
			JOINT rCollar
			{
				OFFSET -3.470700 6.669187 -0.816635 
				CHANNELS 3 Yrotation Zrotation Xrotation
				JOINT rShldr
				{
					OFFSET -3.198488 0.000000 0.000000 
					CHANNELS 3 Zrotation Yrotation Xrotation
					JOINT rForeArm
					{
						OFFSET -10.139888 0.000000 0.000000 
						CHANNELS 3 Yrotation Zrotation Xrotation
						JOINT rHand
						{
							OFFSET -8.370511 0.000000 0.000000 
							CHANNELS 3 Zrotation Yrotation Xrotation
							End Site
							{
								OFFSET -4.083176 0.000000 0.000000 
							}
						}
					}
				}
			}
		}
	}
	JOINT lThigh
	{
		OFFSET 5.308129 -1.633274 1.361059 
		CHANNELS 3 Xrotation Zrotation Yrotation
		JOINT lShin
		{
			OFFSET -2.041588 -20.007561 0.000000 
			CHANNELS 3 Xrotation Zrotation Yrotation
			JOINT lFoot
			{
				OFFSET 0.000000 -19.190928 -1.224953 
				CHANNELS 3 Xrotation Yrotation Zrotation
				End Site
				{
					OFFSET 0.000000 -2.449906 4.627600 
				}
			}
		}
	}
	JOINT rThigh
	{
		OFFSET -5.308129 -1.633274 1.361059 
		CHANNELS 3 Xrotation Zrotation Yrotation
		JOINT rShin
		{
			OFFSET 2.041588 -20.007561 0.000000 
			CHANNELS 3 Xrotation Zrotation Yrotation
			JOINT rFoot
			{
				OFFSET 0.000000 -19.190928 -1.224953 
				CHANNELS 3 Xrotation Yrotation Zrotation
				End Site
				{
					OFFSET 0.000000 -2.449906 4.627600 
				}
			}
		}
	}
}
MOTION
Frames: 16
Frame Time: 0.033333
-11.032425 39.144421 33.344219 -18.818359 -22.333982 97.207031 36.210938 -11.523438 -9.992184 -21.103516 -10.107423 -2.042729 -51.103516 -1.103516 -1.679688 25.888670 8.222655 0.917968 1.542969 14.169860 0.622614 22.587891 -56.757813 -99.363640 -84.736328 -3.505859 -57.998047 1.513679 -116.875000 0.040117 8.955078 -1.337891 0.039063 71.796875 20.986330 20.849609 47.519531 2.871094 -27.197758 -11.318358 3.935547 -0.780587 -87.909531 27.174040 -1.696795 57.185909 0.078227 -3.513778 -12.947373 35.116467 3.198128 -74.471916 10.507512 -13.021686 86.501106 -2.118427 3.671873 -18.843466 -20.512650 -2.621385 
-12.049126 38.570412 34.712479 -20.576170 -25.498047 97.720406 40.371094 -10.908204 -10.107423 -20.751951 -8.525390 -2.042464 -50.468750 0.576172 0.420020 26.406250 6.640625 3.389801 3.330078 15.976563 0.759031 34.404293 -57.548824 -112.324226 -86.699219 -3.447266 -63.300194 6.650391 -119.453125 -4.461629 9.130859 -1.162109 0.019531 69.316406 24.541016 15.160307 48.076176 2.939453 -28.408703 -11.347656 5.458984 -1.123047 -94.234947 30.155199 -1.829164 55.445961 -0.266244 -3.430681 -9.911256 32.246990 1.090994 -76.964005 11.238826 -7.590380 79.291748 -2.107317 3.603772 -22.317060 -20.628534 -3.835424 
-12.822431 37.958557 35.960815 -21.982422 -27.949217 98.251961 44.902344 -10.244141 -9.882813 -20.224611 -7.294922 -1.689453 -49.296875 0.859375 2.685547 26.396484 5.058594 5.323126 4.814453 16.914064 0.742187 42.734371 -57.382809 -120.478516 -89.921875 -3.613281 -68.739616 9.277364 -122.626945 -6.590257 9.306641 -1.708984 -0.068068 67.695313 27.822268 10.205079 47.753906 3.066406 -29.472656 -11.630858 8.173828 -1.668532 -98.714935 32.819725 -0.095109 53.682800 -0.267981 -3.527258 -7.919440 28.837172 -0.206035 -79.696320 11.221056 -7.826237 77.516510 -1.933289 4.212065 -26.115559 -17.260324 -3.573870 
-13.409054 37.363480 37.058483 -22.509766 -29.716797 98.427734 49.101559 -9.804688 -9.541016 -19.873047 -6.767579 -0.801932 -47.226563 0.087891 4.902343 25.859377 4.003906 6.533885 5.253907 17.480469 0.915036 46.552734 -57.773434 -122.967239 -93.984375 -3.486328 -72.392159 10.078135 -125.000000 -7.127140 9.658202 -2.578125 0.087891 66.552734 30.439451 5.844791 47.705078 3.007813 -32.451172 -10.478515 10.644531 -1.775538 -102.687920 35.240322 1.091171 52.641991 -0.257798 -3.122656 -6.514738 25.076031 -1.760165 -83.809044 10.888116 -11.295095 79.115685 -2.107168 3.607901 -26.657602 -15.781938 -3.288506 
-13.853095 36.854149 38.010998 -22.333984 -31.474607 98.246857 52.792969 -9.648438 -8.927419 -19.697266 -7.470703 0.076855 -44.785152 -0.585938 6.581943 24.794924 2.958984 7.383316 4.365234 18.496094 0.924636 46.005859 -59.101559 -120.634773 -97.832031 -3.466797 -73.534569 8.984376 -125.791023 -6.140734 10.527343 -3.300781 0.087891 66.240234 32.421875 2.001953 47.470707 3.164063 -35.400936 -10.380859 12.197266 -1.972657 -106.029778 36.647484 1.809111 52.459854 -0.257652 -3.287909 -5.762423 22.675261 -2.475935 -86.953430 10.712811 -13.172090 80.354469 -1.941422 3.580125 -28.729080 -15.602633 -3.730617 
-14.191055 36.462044 38.846897 -21.445313 -33.056641 97.279831 55.615234 -9.599609 -8.536784 -19.345703 -8.359375 0.781250 -41.806641 -1.513672 7.587890 23.203125 2.089844 7.685547 2.490234 19.140625 0.953829 40.546875 -60.994045 -112.935028 -100.566406 -3.466797 -73.935547 7.880864 -125.888680 -5.154397 11.572265 -4.365234 0.185547 65.947266 33.886719 0.288649 46.640625 3.310547 -37.510330 -11.552734 13.330078 -2.363281 -107.989861 37.007256 1.177059 52.101913 -0.082210 -3.372654 -6.660908 22.193811 -2.349874 -89.837608 11.601913 -14.456007 81.404724 -2.314323 3.337133 -29.287428 -15.681510 -3.888169 
-14.439228 36.213627 39.610649 -20.039063 -34.462891 96.396484 57.373051 -9.658202 -8.370780 -18.652344 -9.238281 1.316792 -39.365234 -2.841797 8.291017 21.621094 1.738281 7.822267 0.878906 18.916014 0.810547 32.226563 -62.597660 -102.137573 -102.128906 -3.496094 -74.091797 8.603525 -125.585938 -5.759897 12.431641 -5.292969 0.108323 65.869141 35.751953 -0.140778 45.224609 3.271484 -38.339844 -11.621094 14.179688 -2.578125 -109.152840 37.330025 0.543372 51.396400 -0.198875 -3.209122 -7.848033 20.339006 -1.815078 -92.398384 12.129387 -14.877586 82.101089 -2.313879 3.530926 -28.588099 -16.043985 -3.593453 
-14.625543 36.127880 40.338512 -18.632813 -35.693359 95.160316 58.437500 -9.609375 -7.980145 -17.949221 -9.765625 1.669922 -37.968750 -3.847657 8.768875 20.390627 1.396484 7.783441 -0.107422 18.193357 0.830078 22.792969 -63.798828 -90.517578 -101.669922 -3.466797 -73.798233 10.078135 -125.000000 -7.127140 13.125001 -6.191407 0.206131 66.181641 37.685547 -0.169811 43.320313 3.378906 -39.219330 -11.279297 14.374999 -2.556170 -109.651741 37.760334 -0.215303 50.868942 -0.391925 -3.271181 -8.901135 18.383949 -1.976381 -94.252129 12.294813 -14.665771 82.799255 -2.098147 3.898778 -27.684702 -15.369282 -3.177586 
-14.743259 36.190842 41.057796 -16.884766 -36.572266 94.212929 58.798824 -9.726563 -7.646485 -17.070311 -10.292969 2.029505 -36.923828 -4.521484 9.042970 19.511719 1.044922 7.588068 -0.908203 17.656250 0.761719 14.023438 -63.857418 -80.302734 -99.667969 -3.408203 -73.222656 13.417989 -124.472656 -9.929927 13.808595 -6.914063 0.284379 66.083984 40.166012 1.090283 40.000004 3.320313 -38.848221 -12.041015 12.255859 -2.390505 -109.066483 38.082829 -0.285227 49.302418 -0.599237 -3.129066 -9.198524 17.492580 -1.756240 -95.156586 12.646403 -15.301217 81.943413 -2.117809 3.507627 -27.696936 -14.998468 -2.910323 
-14.806219 36.393448 41.771935 -15.302735 -37.089844 93.330078 58.964844 -9.453125 -7.364885 -16.191408 -10.820313 2.216797 -36.220703 -4.892578 8.915183 18.984375 0.693359 7.392578 -1.767578 17.294924 0.849609 7.343750 -63.203129 -73.026299 -96.298828 -3.496094 -72.431641 18.173849 -124.296875 -13.914319 13.974609 -7.636719 0.304032 65.947266 42.783203 6.178508 35.185547 3.183594 -35.087894 -13.066406 8.447267 -1.914063 -107.329735 38.620743 0.704091 47.186466 -0.413166 -2.934474 -9.580065 16.646631 -2.110793 -94.976440 12.646792 -15.246655 81.043457 -1.943275 3.968385 -27.779854 -14.388377 -2.518530 
-14.836109 36.710094 42.493916 -13.535156 -37.099606 92.523407 58.603516 -9.238282 -6.914062 -15.839844 -10.996093 2.216797 -35.517578 -5.263672 8.788165 18.457031 0.527344 7.197265 -2.949219 17.294924 0.830078 1.416016 -61.503906 -67.285156 -93.027344 -3.388672 -71.181633 23.447275 -124.677742 -18.318579 14.287109 -8.740234 0.274922 66.601563 44.824219 9.918995 31.298826 3.183594 -33.857418 -12.587891 5.781250 -1.191406 -104.658951 38.774101 2.022934 45.269314 -0.588890 -2.736688 -11.763680 15.934054 -1.390599 -94.451363 12.822912 -15.055267 80.165199 -1.923684 3.953849 -27.303156 -14.175099 -2.283694 
-14.865997 37.143848 43.225327 -11.953125 -37.099606 92.171844 58.056641 -8.906251 -6.798387 -15.839844 -10.996093 2.041016 -35.341797 -5.087891 8.768664 18.632813 0.351563 7.207024 -3.759766 17.119141 0.751953 -2.041015 -59.111324 -64.100182 -90.644531 -3.535156 -70.322258 28.906261 -125.859375 -22.800882 14.433594 -9.638673 0.361328 67.412109 46.064453 13.417967 29.248049 3.134766 -34.727093 -12.910156 4.580078 -1.035156 -101.979973 38.563000 3.488917 44.196278 -0.588787 -3.197268 -14.139457 16.412418 -0.792318 -93.060539 13.349334 -14.391750 78.064995 -1.746019 3.847208 -27.311428 -14.110930 -2.240797 
-14.901768 37.672043 44.004505 -10.908202 -36.914063 92.093742 57.167969 -8.681641 -6.905770 -16.015625 -10.820313 1.689453 -36.386715 -4.023438 8.788377 19.326170 -0.009766 7.578125 -4.257813 17.304688 0.749048 -3.134766 -55.341797 -62.724606 -88.261719 -3.476563 -70.273438 33.369164 -127.714836 -26.267492 14.443358 -9.970702 0.449219 68.720703 47.207031 16.647793 27.587891 3.154297 -33.193356 -12.177734 2.373047 -0.654297 -100.155472 38.817928 4.611104 44.915764 -0.764708 -2.797599 -13.003242 15.503779 -1.208790 -91.261215 13.866976 -14.248030 75.599274 -1.725694 3.947446 -26.526602 -14.124732 -2.143478 
-14.950518 38.299576 44.821663 -10.546876 -36.748051 91.826172 56.083984 -8.398438 -7.179161 -16.367188 -10.117187 1.150628 -38.310543 -2.626953 8.612834 20.732422 -0.361328 7.968750 -4.628906 17.294922 0.859375 -1.943359 -51.201176 -63.425579 -86.074219 -3.427734 -69.355461 35.917969 -129.257813 -28.083735 14.082031 -10.488282 0.519356 69.921875 48.505863 20.476067 25.957031 3.164063 -32.978516 -10.937499 0.156250 -0.244114 -99.726303 39.111279 4.919126 48.412689 -0.430586 -3.350617 -9.720704 13.764118 -2.519357 -89.598305 14.404424 -14.765559 72.279900 -1.191200 3.851146 -25.545618 -13.794576 -1.566894 
-15.022543 39.006493 45.674107 -11.074218 -36.572266 91.996140 54.667973 -8.173828 -7.286543 -16.718750 -8.886719 0.800781 -40.585938 -1.210938 8.613075 21.962893 -0.546875 8.525297 -4.755859 17.314453 0.742188 -1.181641 -45.488281 -63.698372 -84.785156 -3.388672 -70.038490 37.050797 -131.269531 -28.171402 13.554688 -11.005860 0.548739 70.478516 50.292969 24.070013 25.380857 3.017578 -32.617188 -10.087891 -2.597656 0.155809 -100.832718 40.014923 4.503602 55.068130 -0.092491 -3.518737 -8.671109 11.165179 -3.496026 -87.477432 15.293096 -16.903923 68.243805 -1.415676 3.379697 -24.003691 -12.427538 -0.660469 
-15.145896 39.753948 46.517471 -12.666015 -36.738281 92.103539 53.056641 -7.675782 -7.089843 -17.060545 -7.304688 0.272196 -43.046875 0.537109 8.398529 23.193359 -0.898438 9.091798 -5.117188 17.128906 0.830078 -0.732422 -37.607422 -62.363281 -84.121094 -3.525390 -72.119141 37.050797 -133.779297 -27.243382 12.841798 -11.357422 0.499970 69.931641 52.353516 27.888592 24.921875 3.066406 -31.621096 -8.906251 -5.224609 0.390625 -102.952187 40.200871 2.684234 62.814400 0.238462 -3.712698 -9.744024 10.162820 -3.299777 -85.672966 15.449148 -19.547081 64.225578 -0.464715 3.451884 -20.034243 -8.864788 1.552525 
